<svg width="32" height="32" viewBox="0 0 32 32" fill="none" xmlns="http://www.w3.org/2000/svg">
<g clip-path="url(#clip0_974_1619)">
<path d="M31.375 30.0485H29.4444V19.9643C29.4444 19.6191 29.1645 19.3393 28.8194 19.3393C28.4742 19.3393 28.1944 19.6191 28.1944 19.9643V30.0485H23.7064V24.8517C23.7064 24.5066 23.4265 24.2267 23.0814 24.2267H19.0059C18.6607 24.2267 18.3809 24.5066 18.3809 24.8517V30.0485H13.998V14.0814V4.32025H28.1944V14.4459C28.1944 14.7911 28.4742 15.0709 28.8194 15.0709C29.1645 15.0709 29.4444 14.7911 29.4444 14.4459V3.69525C29.4444 3.35013 29.1645 3.07025 28.8194 3.07025H27.2817V1.3125C27.2817 0.967375 27.0018 0.6875 26.6567 0.6875H15.6934C15.3482 0.6875 15.0684 0.967375 15.0684 1.3125V3.07025H13.3731C13.0279 3.07025 12.7481 3.35013 12.7481 3.69525V13.4564H7.84875V11.4943C7.84875 11.1492 7.56888 10.8693 7.22375 10.8693H2.917C2.57188 10.8693 2.292 11.1492 2.292 11.4943V14.0814V30.0485H0.625C0.279875 30.0485 0 30.3284 0 30.6735C0 31.0186 0.279875 31.2985 0.625 31.2985H31.375C31.7201 31.2985 32 31.0186 32 30.6735C32 30.3284 31.7201 30.0485 31.375 30.0485ZM16.3184 1.9375H26.0317V3.07025H16.3184V1.9375ZM3.542 12.1193H6.59875V13.4564H3.542V12.1193ZM8.86619 30.0483H7.34513V27.8166H8.86619V30.0483ZM12.7481 30.0485H10.1163V27.1916C10.1163 26.8464 9.83638 26.5666 9.49125 26.5666H6.72019C6.37506 26.5666 6.09519 26.8464 6.09519 27.1916V30.0485H3.542V14.7064H7.22375H12.7481V30.0485ZM22.4564 30.0483H19.6309V25.4767H22.4564V30.0483Z" fill="#002441"/>
<path d="M29.3397 16.928C29.0296 16.4632 28.2859 16.6305 28.2025 17.1834C28.1176 17.7468 28.8061 18.1188 29.2322 17.7453C29.4665 17.5399 29.5095 17.187 29.3397 16.928Z" fill="#002441"/>
<path d="M20.0282 7.18417C20.0282 6.83905 19.7483 6.55917 19.4032 6.55917H16.7539C16.4088 6.55917 16.1289 6.83905 16.1289 7.18417V9.83349C16.1289 10.1786 16.4088 10.4585 16.7539 10.4585H19.4032C19.7483 10.4585 20.0282 10.1786 20.0282 9.83349V7.18417ZM18.7782 9.20842H17.3789V7.80911H18.7782V9.20842Z" fill="#002441"/>
<path d="M25.8876 7.18417C25.8876 6.83905 25.6077 6.55917 25.2626 6.55917H22.6133C22.2682 6.55917 21.9883 6.83905 21.9883 7.18417V9.83349C21.9883 10.1786 22.2682 10.4585 22.6133 10.4585H25.2626C25.6077 10.4585 25.8876 10.1786 25.8876 9.83349V7.18417ZM24.6376 9.20842H23.2383V7.80911H24.6376V9.20842Z" fill="#002441"/>
<path d="M20.0282 12.6492C20.0282 12.3041 19.7483 12.0242 19.4032 12.0242H16.7539C16.4088 12.0242 16.1289 12.3041 16.1289 12.6492V15.2985C16.1289 15.6436 16.4088 15.9235 16.7539 15.9235H19.4032C19.7483 15.9235 20.0282 15.6436 20.0282 15.2985V12.6492ZM18.7782 14.6735H17.3789V13.2742H18.7782V14.6735Z" fill="#002441"/>
<path d="M25.8876 12.6492C25.8876 12.3041 25.6077 12.0242 25.2626 12.0242H22.6133C22.2682 12.0242 21.9883 12.3041 21.9883 12.6492V15.2985C21.9883 15.6436 22.2682 15.9235 22.6133 15.9235H25.2626C25.6077 15.9235 25.8876 15.6436 25.8876 15.2985V12.6492ZM24.6376 14.6735H23.2383V13.2742H24.6376V14.6735Z" fill="#002441"/>
<path d="M19.4032 17.4891H16.7539C16.4088 17.4891 16.1289 17.769 16.1289 18.1141V20.7634C16.1289 21.1086 16.4088 21.3884 16.7539 21.3884H19.4032C19.7483 21.3884 20.0282 21.1086 20.0282 20.7634V18.1141C20.0282 17.769 19.7484 17.4891 19.4032 17.4891ZM18.7782 20.1384H17.3789V18.7391H18.7782V20.1384Z" fill="#002441"/>
<path d="M25.2626 17.4891H22.6133C22.2682 17.4891 21.9883 17.769 21.9883 18.1141V20.7634C21.9883 21.1086 22.2682 21.3884 22.6133 21.3884H25.2626C25.6077 21.3884 25.8876 21.1086 25.8876 20.7634V18.1141C25.8876 17.769 25.6077 17.4891 25.2626 17.4891ZM24.6376 20.1384H23.2383V18.7391H24.6376V20.1384Z" fill="#002441"/>
<path d="M5.53906 16.1465C5.19394 16.1465 4.91406 16.4264 4.91406 16.7715V24.6017C4.91406 24.9468 5.19394 25.2267 5.53906 25.2267C5.88419 25.2267 6.16406 24.9468 6.16406 24.6017V16.7715C6.16406 16.4264 5.88419 16.1465 5.53906 16.1465Z" fill="#002441"/>
<path d="M8.09766 25.2267C8.44278 25.2267 8.72266 24.9468 8.72266 24.6017V16.7715C8.72266 16.4264 8.44278 16.1465 8.09766 16.1465C7.75253 16.1465 7.47266 16.4264 7.47266 16.7715V24.6017C7.47266 24.9469 7.75247 25.2267 8.09766 25.2267Z" fill="#002441"/>
<path d="M10.6602 25.2267C11.0053 25.2267 11.2852 24.9468 11.2852 24.6017V16.7715C11.2852 16.4264 11.0053 16.1465 10.6602 16.1465C10.315 16.1465 10.0352 16.4264 10.0352 16.7715V24.6017C10.0352 24.9469 10.315 25.2267 10.6602 25.2267Z" fill="#002441"/>
</g>
<defs>
<clipPath id="clip0_974_1619">
<rect width="32" height="32" fill="white"/>
</clipPath>
</defs>
</svg>
