<svg width="30" height="30" viewBox="0 0 30 30" fill="none" xmlns="http://www.w3.org/2000/svg">
<g clip-path="url(#clip0_903_776)">
<path d="M27.5726 7.74179L23.8952 6.10593L22.258 2.42717L18.256 2.84511L15.0001 0.483887L11.7423 2.84511L7.74228 2.42717L6.10618 6.1043L2.42742 7.74179L2.84559 11.7438L0.484375 14.9996L2.84559 18.2574L2.42742 22.2575L6.10473 23.8933L7.74228 27.5721L11.7443 27.1542L15.0001 29.5153L18.2579 27.1541L22.258 27.5721L23.8938 23.8948L27.5726 22.2575L27.1544 18.2555L29.5158 14.9996L27.1544 11.7419L27.5726 7.74179ZM12.097 20.8059L7.98893 16.6979L9.35824 15.3334L12.097 18.0672L20.3079 9.8563L21.6772 11.2254L12.097 20.8059Z" fill="white"/>
<path d="M29.9074 14.7158L27.6545 11.6079L28.0538 7.79083C28.0644 7.68919 28.0425 7.58679 27.9914 7.49831C27.9403 7.40983 27.8624 7.33981 27.7691 7.29826L24.2623 5.73783L22.7018 2.23078C22.6599 2.13762 22.5899 2.05997 22.5015 2.00884C22.4131 1.9577 22.3108 1.93567 22.2092 1.94585L18.3915 2.34491L15.2838 0.0921314C15.2012 0.032247 15.1018 0 14.9998 0C14.8978 0 14.7984 0.032247 14.7158 0.0921314L11.6079 2.34491L7.79034 1.94585C7.68886 1.93618 7.58689 1.95838 7.49861 2.00936C7.41033 2.06034 7.34013 2.13756 7.29778 2.23029L5.73734 5.73728L2.23029 7.29826C2.137 7.33976 2.05923 7.40973 2.00813 7.49813C1.95703 7.58654 1.93523 7.68885 1.94585 7.79041L2.34485 11.6079L0.0921314 14.7158C0.032247 14.7984 0 14.8978 0 14.9998C0 15.1018 0.032247 15.2012 0.0921314 15.2838L2.34485 18.3915L1.94585 22.2092C1.93514 22.3108 1.9569 22.4132 2.008 22.5017C2.05911 22.5902 2.13692 22.6603 2.23029 22.7018L5.73728 24.2623L7.29778 27.7693C7.33992 27.8622 7.41006 27.9397 7.49838 27.9907C7.58671 28.0418 7.68879 28.064 7.79034 28.0542L11.6079 27.655L14.7158 29.908C14.7984 29.9679 14.8978 30.0001 14.9998 30.0001C15.1018 30.0001 15.2012 29.9679 15.2838 29.908L18.3915 27.655L22.2091 28.0542C22.3107 28.0644 22.4129 28.0425 22.5013 27.9915C22.5897 27.9404 22.6599 27.8629 22.7018 27.7698L24.2623 24.2627L27.769 22.7018C27.8623 22.6603 27.9401 22.5903 27.9912 22.5019C28.0424 22.4136 28.0642 22.3113 28.0538 22.2097L27.6545 18.392L29.9074 15.2843C29.9674 15.2016 29.9997 15.1021 29.9997 15C29.9997 14.8979 29.9674 14.7985 29.9074 14.7158ZM26.7624 17.9736C26.6922 18.0701 26.6603 18.1892 26.6728 18.3079L27.0541 21.96L23.6986 23.4539C23.5889 23.502 23.5011 23.5895 23.4527 23.6991L21.96 27.0546L18.3069 26.6728C18.1883 26.6606 18.0694 26.6926 17.973 26.7628L14.9997 28.918L12.026 26.7628C11.9438 26.7026 11.8444 26.6703 11.7425 26.6705C11.7255 26.6705 11.7085 26.6705 11.6941 26.6728L8.0408 27.0546L6.54811 23.6991C6.49953 23.5895 6.41197 23.5018 6.30243 23.4531L2.94495 21.96L3.32629 18.3079C3.33856 18.1892 3.3067 18.0702 3.23677 17.9736L1.08156 14.9998L3.23665 12.026C3.30658 11.9294 3.33844 11.8104 3.32617 11.6917L2.94501 8.03941L6.30055 6.54581C6.41022 6.49761 6.49788 6.41012 6.54629 6.30055L8.03899 2.94501L11.6922 3.32677C11.8108 3.33851 11.9295 3.3065 12.0261 3.23677L14.9999 1.08162L17.9736 3.23677C18.0701 3.30666 18.189 3.33869 18.3075 3.32677L21.9605 2.94495L23.4532 6.30049C23.5019 6.41006 23.5895 6.49764 23.6991 6.54623L27.0547 8.03941L26.6734 11.6917C26.6609 11.8104 26.6928 11.9295 26.7629 12.026L28.9178 14.9998L26.7624 17.9736Z" fill="white"/>
<path d="M20.6507 9.51433C20.6058 9.46939 20.5525 9.43373 20.4938 9.4094C20.4351 9.38508 20.3721 9.37256 20.3086 9.37256C20.245 9.37256 20.1821 9.38508 20.1234 9.4094C20.0647 9.43373 20.0114 9.46939 19.9665 9.51433L12.0977 17.3831L9.7011 14.991C9.6104 14.9006 9.48754 14.8498 9.35946 14.8498C9.23139 14.8498 9.10853 14.9006 9.01783 14.991L7.6461 16.3544C7.55513 16.4451 7.50391 16.5685 7.50391 16.697C7.50391 16.8255 7.55513 16.9488 7.6461 17.0396L11.7542 21.1476C11.9429 21.3364 12.2494 21.3364 12.4384 21.1476L22.0186 11.5672C22.2074 11.3784 22.2074 11.072 22.0186 10.883L20.6507 9.51433ZM12.0977 20.1217L8.67429 16.6984L9.35853 16.0159L11.756 18.4085C11.9448 18.597 12.2508 18.597 12.4398 18.4085L20.3086 10.5403L20.9938 11.2255L12.0977 20.1217Z" fill="white"/>
</g>
<defs>
<clipPath id="clip0_903_776">
<rect width="30" height="30" fill="white"/>
</clipPath>
</defs>
</svg>
