<svg width="94" height="94" viewBox="0 0 94 94" fill="none" xmlns="http://www.w3.org/2000/svg">
<path d="M11.7539 28.6825V65.3175C11.7539 65.9348 11.9164 66.5413 12.2251 67.0759C12.5338 67.6106 12.9777 68.0545 13.5124 68.3631L45.2392 86.6807C45.7738 86.9893 46.3802 87.1518 46.9976 87.1518C47.6149 87.1518 48.2213 86.9893 48.7559 86.6807L80.4828 68.3631C81.0174 68.0545 81.4614 67.6106 81.7701 67.0759C82.0787 66.5413 82.2412 65.9348 82.2412 65.3175V28.6825C82.2412 28.0651 82.0787 27.4587 81.7701 26.9241C81.4614 26.3894 81.0174 25.9455 80.4828 25.6368L48.7559 7.31933C48.2213 7.01065 47.6149 6.84814 46.9976 6.84814C46.3802 6.84814 45.7738 7.01065 45.2392 7.31933L13.5124 25.6368C12.9777 25.9455 12.5338 26.3895 12.2251 26.9241C11.9164 27.4587 11.7539 28.0651 11.7539 28.6825Z" fill="#C9EEFF"/>
<path d="M80.4835 25.6369L77.4164 23.8661V60.245C77.4164 60.9101 77.2413 61.5636 76.9088 62.1396C76.5762 62.7156 76.0979 63.194 75.5219 63.5266L41.3378 83.2627C40.9539 83.4838 40.5341 83.6358 40.0977 83.7118L45.2399 86.6807C45.7745 86.9893 46.381 87.1519 46.9983 87.1519C47.6156 87.1519 48.2221 86.9893 48.7567 86.6807L80.4835 68.3632C81.0181 68.0545 81.4621 67.6106 81.7708 67.0759C82.0795 66.5413 82.242 65.9349 82.242 65.3175V28.6825C82.2419 28.0652 82.0794 27.4587 81.7707 26.9241C81.462 26.3895 81.0181 25.9455 80.4835 25.6369Z" fill="#C5EFFF"/>
<path d="M90.1949 62.4257H3.80119C2.46114 62.4257 1.375 61.3394 1.375 59.9995V42.061C1.375 40.7209 2.46132 39.6348 3.80119 39.6348H90.1947C91.5348 39.6348 92.6209 40.7211 92.6209 42.061V59.9995C92.6211 61.3394 91.5348 62.4257 90.1949 62.4257Z" fill="#0286B7"/>
<path d="M7.987 55L12.108 45.9H13.395L17.529 55H16.164L12.485 46.628H13.005L9.326 55H7.987ZM9.742 52.725L10.093 51.685H15.215L15.592 52.725H9.742ZM21.878 55.104C21.202 55.104 20.6213 54.9783 20.136 54.727C19.6507 54.467 19.278 54.0943 19.018 53.609C18.7667 53.115 18.641 52.5257 18.641 51.841V47.616H19.902V51.815C19.902 52.5343 20.071 53.0803 20.409 53.453C20.7557 53.8257 21.2497 54.012 21.891 54.012C22.5323 54.012 23.022 53.83 23.36 53.466C23.7067 53.0933 23.88 52.543 23.88 51.815V47.616H25.115V51.841C25.115 52.5257 24.985 53.115 24.725 53.609C24.4737 54.0943 24.1053 54.467 23.62 54.727C23.1347 54.9783 22.554 55.104 21.878 55.104ZM28.8679 55V48.656H26.3459V47.616H32.6509V48.656H30.1289V55H28.8679ZM33.9661 55V47.616H35.2271V50.736H39.2701V47.616H40.5311V55H39.2701V51.776H35.2271V55H33.9661ZM46.3839 55.104C45.6213 55.104 44.9366 54.9393 44.3299 54.61C43.7233 54.2807 43.2423 53.83 42.8869 53.258C42.5403 52.6773 42.3669 52.023 42.3669 51.295C42.3669 50.5757 42.5403 49.93 42.8869 49.358C43.2423 48.786 43.7233 48.3353 44.3299 48.006C44.9366 47.6767 45.6213 47.512 46.3839 47.512C47.1553 47.512 47.8399 47.6767 48.4379 48.006C49.0446 48.3353 49.5213 48.786 49.8679 49.358C50.2233 49.93 50.4009 50.5757 50.4009 51.295C50.4009 52.023 50.2233 52.6773 49.8679 53.258C49.5213 53.83 49.0446 54.2807 48.4379 54.61C47.8399 54.9393 47.1553 55.104 46.3839 55.104ZM46.3839 54.012C46.9126 54.012 47.3806 53.895 47.7879 53.661C48.2039 53.427 48.5289 53.1063 48.7629 52.699C49.0056 52.283 49.1269 51.8193 49.1269 51.308C49.1269 50.7793 49.0056 50.3157 48.7629 49.917C48.5289 49.5097 48.2039 49.189 47.7879 48.955C47.3806 48.721 46.9126 48.604 46.3839 48.604C45.8639 48.604 45.3959 48.721 44.9799 48.955C44.5639 49.1803 44.2346 49.4967 43.9919 49.904C43.7579 50.3113 43.6409 50.7793 43.6409 51.308C43.6409 51.8193 43.7579 52.283 43.9919 52.699C44.2346 53.1063 44.5639 53.427 44.9799 53.661C45.3959 53.895 45.8639 54.012 46.3839 54.012ZM52.2346 55V47.616H55.2506C55.9006 47.616 56.4596 47.72 56.9276 47.928C57.3956 48.1273 57.7596 48.422 58.0196 48.812C58.2796 49.1933 58.4096 49.6613 58.4096 50.216C58.4096 50.7533 58.2796 51.217 58.0196 51.607C57.7596 51.997 57.3956 52.296 56.9276 52.504C56.4596 52.7033 55.9006 52.803 55.2506 52.803H52.9366L53.4956 52.231V55H52.2346ZM57.1746 55L55.2506 52.322H56.6156L58.5396 55H57.1746ZM53.4956 52.374L53.0146 51.776H55.1726C55.814 51.776 56.2993 51.6417 56.6286 51.373C56.9666 51.1043 57.1356 50.7187 57.1356 50.216C57.1356 49.7133 56.9666 49.3277 56.6286 49.059C56.2993 48.7903 55.814 48.656 55.1726 48.656H53.0146L53.4956 48.058V52.374ZM60.4231 55V47.616H61.6841V55H60.4231ZM63.4656 55V54.155L68.3926 48.201L68.5226 48.656H63.5436V47.616H69.6666V48.461L64.7396 54.402L64.6096 53.947H69.8096V55H63.4656ZM72.4576 50.736H76.3446V51.763H72.4576V50.736ZM72.6656 53.947H76.9426V55H71.4046V47.616H76.7996V48.656H72.6656V53.947ZM78.8186 55V47.616H82.0296C82.8616 47.616 83.581 47.7677 84.1876 48.071C84.803 48.3743 85.2753 48.8033 85.6046 49.358C85.9426 49.9127 86.1116 50.5627 86.1116 51.308C86.1116 52.0533 85.9426 52.7033 85.6046 53.258C85.2753 53.8127 84.803 54.2417 84.1876 54.545C83.581 54.8483 82.8616 55 82.0296 55H78.8186ZM80.0796 53.947H81.9776C82.5843 53.947 83.1 53.843 83.5246 53.635C83.9493 53.4183 84.2743 53.1107 84.4996 52.712C84.725 52.3133 84.8376 51.8453 84.8376 51.308C84.8376 50.762 84.725 50.294 84.4996 49.904C84.2743 49.5053 83.9493 49.1977 83.5246 48.981C83.1 48.7643 82.5843 48.656 81.9776 48.656H80.0796V53.947Z" fill="white"/>
<path d="M90.1949 39.6346H87.1133V54.4915C87.1133 55.8316 86.027 56.9179 84.6871 56.9179H1.375V59.9994C1.375 61.3394 2.46132 62.4257 3.80119 62.4257H90.1947C91.5348 62.4257 92.6209 61.3394 92.6209 59.9994V42.0608C92.6211 40.7209 91.5348 39.6346 90.1949 39.6346Z" fill="#0286B7"/>
<path d="M65.333 16.8899L48.7563 7.31933C48.2217 7.01065 47.6153 6.84814 46.998 6.84814C46.3806 6.84814 45.7742 7.01065 45.2396 7.31933L13.5127 25.6368C12.9781 25.9455 12.5341 26.3894 12.2255 26.9241C11.9168 27.4587 11.7543 28.0651 11.7543 28.6825V39.1853M82.2414 38.7003V28.6827C82.2414 28.0653 82.0789 27.4589 81.7703 26.9243C81.4616 26.3896 81.0176 25.9457 80.483 25.637L69.9412 19.5507M11.7543 63.5009V65.3175C11.7543 65.9348 11.9168 66.5413 12.2255 67.0759C12.5341 67.6106 12.9781 68.0545 13.5127 68.3631L45.2396 86.6807C45.7742 86.9893 46.3806 87.1518 46.998 87.1518C47.6153 87.1518 48.2217 86.9893 48.7563 86.6807L80.4832 68.3631C81.0178 68.0545 81.4618 67.6106 81.7704 67.0759C82.0791 66.5413 82.2416 65.9348 82.2416 65.3175V63.6879M28.3034 39.6346H90.1949C91.535 39.6346 92.6211 40.7209 92.6211 42.0608V59.9994C92.6211 61.3394 91.5348 62.4255 90.1949 62.4255H3.80119C2.46114 62.4255 1.375 61.3392 1.375 59.9994V42.0608C1.375 40.7207 2.46132 39.6346 3.80119 39.6346H22.7956" stroke="black" stroke-miterlimit="10" stroke-linecap="round" stroke-linejoin="round"/>
<path d="M39.9102 75.4922H54.0865" stroke="black" stroke-miterlimit="10" stroke-linecap="round" stroke-linejoin="round"/>
<path d="M39.9102 27.7579H54.0865" stroke="black" stroke-miterlimit="10" stroke-linecap="round" stroke-linejoin="round"/>
</svg>
