<svg width="99" height="97" viewBox="0 0 99 97" fill="none" xmlns="http://www.w3.org/2000/svg">
<g clip-path="url(#clip0_894_15)">
<path d="M39.4683 46.0944L37.9359 46.3127L38.2143 48.1894L39.7467 47.9711C40.7886 47.7691 40.4096 45.9527 39.4683 46.0944ZM75.3278 47.6943C79.2898 46.9767 78.0581 40.5213 74.2099 41.1614L75.1899 47.7139L75.3278 47.6943Z" fill="#0286B7"/>
<path d="M82.1551 52.3102C83.1288 52.1509 83.9984 51.6203 84.5739 50.8344C85.1493 50.0486 85.3837 49.0714 85.2258 48.1167L83.7214 37.7141C83.5789 36.7664 83.0681 35.9094 82.2956 35.3223C81.5232 34.7352 80.549 34.4633 79.5767 34.5636C77.9371 34.7971 31.9547 41.4844 16.4361 43.7791C15.4625 43.9384 14.5928 44.469 14.0174 45.2549C13.4419 46.0408 13.2075 47.0179 13.3655 47.9726L14.8371 58.4183C14.9664 59.3718 15.4739 60.2371 16.2496 60.8268C17.0253 61.4164 18.0069 61.683 18.9818 61.5688C24.1895 60.758 80.5308 52.5416 82.1551 52.3102ZM34.5963 55.6499L30.8791 56.1717C30.5928 56.2116 30.3019 56.1389 30.07 55.9694C29.8382 55.7999 29.6842 55.5474 29.6418 55.2671L28.998 50.928L28.3454 46.5826C28.3046 46.302 28.3788 46.017 28.5518 45.7898C28.7248 45.5627 28.9825 45.4118 29.2687 45.3702L32.9858 44.8484C33.261 44.8303 33.533 44.9146 33.7475 45.0844C33.962 45.2542 34.1032 45.4971 34.1429 45.7645C34.1825 46.0319 34.1178 46.3041 33.9615 46.5267C33.8052 46.7494 33.569 46.906 33.2999 46.9654L30.6905 47.3601L31.018 49.5671L33.6537 49.1917C33.9414 49.1518 34.2335 49.2254 34.4658 49.3965C34.6981 49.5675 34.8515 49.822 34.8922 50.1038C34.933 50.3857 34.8578 50.6719 34.6833 50.8995C34.5087 51.127 34.249 51.2773 33.9613 51.3173L31.3343 51.6991L31.6508 53.8847L34.2865 53.5093C34.5762 53.4691 34.8704 53.5432 35.1043 53.7155C35.3382 53.8878 35.4927 54.144 35.5338 54.4279C35.5749 54.7117 35.4992 54.9999 35.3234 55.2291C35.1476 55.4583 34.886 55.6097 34.5963 55.6499ZM36.8593 54.2391L35.5652 45.5696C35.5429 45.4293 35.5493 45.2861 35.5839 45.1483C35.6185 45.0105 35.6807 44.8807 35.7668 44.7666C35.8539 44.6532 35.9632 44.5579 36.0882 44.4861C36.2132 44.4144 36.3514 44.3676 36.495 44.3486C37.8371 44.2188 40.1062 43.4817 41.2497 44.4916C43.4629 45.9088 42.7219 49.9315 39.917 50.1164L43.1184 52.604C43.3511 52.7742 43.5054 53.0279 43.5471 53.3095C43.5889 53.5911 43.5148 53.8774 43.3411 54.1054C42.6969 54.8257 41.9755 54.4456 41.3413 53.915L38.7609 51.9215C38.9136 52.6923 39.0085 53.473 39.0449 54.2574C39.0252 54.5297 38.9003 54.7843 38.6956 54.9696C38.4909 55.1548 38.2219 55.2566 37.9433 55.2542C37.6647 55.2519 37.3975 55.1456 37.1961 54.957C36.9947 54.7684 36.8743 54.5116 36.8593 54.2391ZM43.8395 43.2795L48.6753 42.5984C48.9505 42.5803 49.2225 42.6646 49.437 42.8344C49.6515 43.0042 49.7927 43.2471 49.8323 43.5145C49.872 43.7819 49.8073 44.0541 49.651 44.2767C49.4947 44.4994 49.2585 44.656 48.9894 44.7154L47.6497 44.9139L48.7944 52.5238C48.8081 52.6227 48.8099 52.7228 48.7996 52.822C48.7766 53.089 48.6526 53.3379 48.4518 53.5198C48.251 53.7017 47.9879 53.8034 47.7145 53.8049C47.441 53.8063 47.1769 53.7075 46.974 53.5278C46.7712 53.348 46.6444 53.1005 46.6184 52.8337L45.4518 45.2346C44.9176 45.2724 43.7754 45.642 43.3057 45.2183C43.1367 45.0912 43.0092 44.9185 42.9389 44.7215C42.8685 44.5244 42.8584 44.3115 42.9097 44.1089C42.9611 43.9063 43.0716 43.7228 43.2278 43.5808C43.3841 43.4389 43.5791 43.3446 43.7892 43.3097L43.8395 43.2795ZM51.97 42.1292C52.2563 42.0892 52.5472 42.1619 52.7791 42.3314C53.0109 42.5009 53.1649 42.7534 53.2074 43.0338L54.5103 51.7097C54.5522 51.9924 54.4778 52.2799 54.3034 52.5088C54.1291 52.7378 53.869 52.8895 53.5804 52.9306C53.2919 52.9717 52.9985 52.8988 52.7648 52.728C52.5311 52.5571 52.3762 52.3023 52.3343 52.0196L51.0467 43.3415C51.0132 43.0729 51.0845 42.8018 51.2464 42.5826C51.4083 42.3634 51.6488 42.2122 51.9197 42.1593L51.97 42.1292ZM55.1275 42.0014C55.213 41.8877 55.3206 41.7917 55.444 41.7189C55.5675 41.6461 55.7044 41.5978 55.8469 41.577L59.3802 41.0814C59.6554 41.0632 59.9274 41.1475 60.1419 41.3173C60.3564 41.4872 60.4976 41.73 60.5372 41.9974C60.5769 42.2648 60.5121 42.537 60.3559 42.7597C60.1996 42.9823 59.9633 43.139 59.6943 43.1984L57.2425 43.5476L57.5498 45.5659L60.0016 45.2166C60.2893 45.1767 60.5814 45.2503 60.8136 45.4214C61.0459 45.5924 61.1993 45.8469 61.2401 46.1288C61.2809 46.4106 61.2057 46.6968 61.0311 46.9244C60.8565 47.152 60.5968 47.3022 60.3091 47.3422L57.8573 47.6914L58.3807 51.1661C58.3922 51.2501 58.3917 51.3353 58.3791 51.4193C58.4043 51.6889 58.3246 51.9579 58.1558 52.1723C57.9871 52.3867 57.7418 52.5307 57.4693 52.5753C57.1967 52.62 56.917 52.562 56.6863 52.413C56.4555 52.264 56.2908 52.0351 56.2251 51.7721C56.1885 51.6898 56.1625 51.6034 56.1478 51.5148L55.4795 47.0106L54.8647 42.8667C54.8393 42.7207 54.8451 42.5711 54.8817 42.4273C54.9183 42.2836 54.9849 42.1488 55.0772 42.0316L55.1275 42.0014ZM62.5216 40.6339C62.808 40.594 63.0989 40.6667 63.3307 40.8362C63.5626 41.0057 63.7165 41.2582 63.759 41.5386L65.0531 50.208C65.0743 50.3475 65.0673 50.4896 65.0324 50.6264C64.9976 50.7631 64.9355 50.8918 64.8499 51.0051C64.7643 51.1184 64.6567 51.214 64.5334 51.2866C64.41 51.3591 64.2733 51.4071 64.131 51.4279C63.9887 51.4487 63.8436 51.4418 63.704 51.4076C63.5644 51.3735 63.4331 51.3127 63.3175 51.2288C63.2018 51.1449 63.1042 51.0395 63.0302 50.9186C62.9561 50.7978 62.9071 50.6638 62.8859 50.5244L61.548 41.8765C61.5073 41.5959 61.5815 41.3109 61.7545 41.0837C61.9275 40.8566 62.1852 40.7057 62.4713 40.6641L62.5216 40.6339ZM65.1953 40.5674C65.3719 40.3421 65.6289 40.1905 65.9147 40.143L69.6319 39.6212C69.9196 39.5812 70.2117 39.6549 70.444 39.8259C70.6762 39.997 70.8296 40.2515 70.8704 40.5333C70.9112 40.8152 70.836 41.1014 70.6614 41.329C70.4869 41.5565 70.2272 41.7068 69.9395 41.7468L67.3191 42.12L67.6488 44.3421L70.2757 43.9602C70.4187 43.9393 70.5644 43.9463 70.7046 43.9808C70.8448 44.0153 70.9766 44.0767 71.0925 44.1614C71.2083 44.2461 71.3059 44.3524 71.3796 44.4743C71.4533 44.5961 71.5017 44.731 71.5219 44.8713C71.5626 45.1519 71.4884 45.4369 71.3154 45.664C71.1424 45.8912 70.8847 46.042 70.5986 46.0836L67.9629 46.459L68.2903 48.6661L70.9131 48.3615C71.2005 48.3196 71.4931 48.3912 71.7266 48.5606C71.9601 48.7301 72.1153 48.9835 72.1581 49.265C72.201 49.5466 72.1279 49.8333 71.9549 50.0621C71.782 50.2909 71.5234 50.443 71.236 50.4849L67.5188 51.0067C67.2324 51.0466 66.9415 50.9739 66.7097 50.8044C66.4779 50.6349 66.3239 50.3824 66.2814 50.1021L65.6311 45.7716L64.9785 41.4262C64.9356 41.1394 64.9944 40.847 65.145 40.5976L65.1953 40.5674ZM79.9435 43.6794C80.1983 45.0439 79.8934 46.4518 79.0952 47.5974C78.2969 48.7431 77.0696 49.5339 75.6798 49.7983L74.4539 49.9729C74.3109 49.9939 74.1651 49.9869 74.025 49.9524C73.8848 49.9178 73.7529 49.8564 73.6371 49.7717C73.5212 49.6871 73.4237 49.5807 73.35 49.4589C73.2763 49.3371 73.2279 49.2021 73.2077 49.0619L71.8589 40.4462C71.8388 40.3064 71.847 40.1641 71.8831 40.0274C71.9192 39.8907 71.9825 39.7623 72.0694 39.6497C72.3812 39.1146 73.4916 39.1635 74.0147 39.0506C75.426 38.9012 76.8405 39.3036 77.9507 40.1704C79.0609 41.0371 79.7771 42.2982 79.9435 43.6794ZM20.9127 56.1271C17.2142 53.6106 18.1762 46.9118 22.9487 46.2781C24.3406 45.9571 27.965 46.8667 26.8244 48.7233C25.6712 49.9684 24.9152 48.037 23.2715 48.4014C22.4552 48.5808 21.7441 49.0685 21.2928 49.7586C20.8414 50.4487 20.6862 51.2854 20.8609 52.087C21.1698 54.749 24.4273 56.0328 26.0249 53.8812C26.1986 53.6531 26.4576 53.502 26.745 53.4611C27.0323 53.4201 27.3245 53.4927 27.5573 53.6629C28.549 54.3879 27.6583 55.5036 26.9326 56.0439C26.0837 56.7165 25.0289 57.0903 23.9373 57.1054C22.8457 57.1205 21.7806 56.776 20.9127 56.1271ZM71.6375 65.5827C76.5209 63.7986 77.938 61.2741 76.653 56.2521L76.4667 55.3128L66.3661 56.7898C64.6987 59.954 62.1553 62.594 59.0273 64.4075C55.8993 66.221 52.3133 67.1345 48.6799 67.0435C48.4003 67.02 48.1407 66.8923 47.9545 66.6867C47.7682 66.4811 47.6697 66.2133 47.6791 65.9386C47.6885 65.6639 47.8052 65.4032 48.0051 65.2103C48.205 65.0174 48.4728 64.907 48.7533 64.902C49.7442 64.9308 50.7358 64.8717 51.7158 64.7253C54.1368 64.3794 56.4531 63.5257 58.5066 62.2225C60.56 60.9193 62.3023 59.1973 63.6144 57.1741L38.1637 60.868C38.8657 61.3813 39.9581 62.0996 39.2313 63.054C39.0576 63.282 38.7986 63.4331 38.5112 63.4741C38.2238 63.515 37.9316 63.4424 37.6989 63.2723C36.8908 62.6804 36.134 62.0241 35.4361 61.3102L25.2962 62.7851C25.5905 68.3544 26.8034 70.834 32.8573 71.2442C34.1066 71.3005 35.3368 71.566 36.4946 72.0293C39.0341 73.4843 40.7722 77.5525 44.0297 77.9931C47.2873 78.4337 50.2249 75.3476 53.1887 74.8105C54.4633 74.7458 55.74 74.8877 56.9674 75.2305C62.0559 76.6215 64.5795 75.2271 66.5123 70.4828C66.8755 69.3089 67.5359 68.244 68.432 67.3872C69.3281 66.5305 70.4308 65.9098 71.6375 65.5827ZM21.9382 39.8372L22.1245 40.7765L32.2251 39.2996C33.6233 36.6252 35.6541 34.3173 38.148 32.5686C40.6419 30.8198 43.5266 29.681 46.5613 29.247C47.8772 29.1516 52.9886 28.3239 52.6916 30.3823C52.6541 30.6639 52.5042 30.9194 52.2748 31.0929C52.0453 31.2664 51.755 31.3437 51.4675 31.3079C48.267 30.93 45.0225 31.4432 42.1059 32.7887C39.1893 34.1342 36.7186 36.2575 34.9769 38.9153L60.4276 35.2213C59.7167 34.7016 58.6923 34.0196 59.36 33.0353C60.6158 31.6913 62.1941 34.0498 63.1485 34.7877L73.2885 33.3128L73.1898 32.384C73.0192 27.2263 71.006 25.2057 65.7274 24.8537C64.4846 24.88 63.2555 24.5951 62.1565 24.0259C61.0575 23.4567 60.125 22.6221 59.4473 21.6011C56.2201 17.5687 53.3893 16.9983 48.942 19.7705C47.8622 20.4634 46.6707 20.9726 45.4178 21.2767C44.1433 21.3413 42.8666 21.1994 41.6392 20.8566C36.5331 19.4529 34.0203 20.815 32.0614 25.5937C31.7008 26.7676 31.0436 27.8332 30.1507 28.692C29.2579 29.5508 28.1583 30.175 26.9538 30.5066C22.0573 32.3079 20.6598 34.8066 21.9382 39.8372Z" fill="#0286B7"/>
</g>
<defs>
<clipPath id="clip0_894_15">
<rect width="69.5736" height="69.17" fill="white" transform="matrix(0.807277 0.590172 -0.60587 0.795564 42.168 0)"/>
</clipPath>
</defs>
</svg>
