<svg width="717" height="506" viewBox="0 0 717 506" fill="none" xmlns="http://www.w3.org/2000/svg">
<path d="M255.031 105.927H28.1367C28.1367 105.927 80.7216 93.2671 91.4345 81.5824C102.145 69.8978 113.832 56.2637 144.993 80.6087C136.23 32.8925 177.128 26.0764 208.291 66.9746C214.131 38.7368 255.031 105.927 255.031 105.927Z" fill="#F2F9FC"/>
<path d="M444.785 55.9338H715.616C715.616 55.9338 726.968 -44.6133 644.258 25.1215C660.475 -18.6656 602.094 7.28207 576.145 31.6089C584.255 -10.5574 491.816 49.4484 444.785 55.9338Z" fill="#F2F9FC"/>
<path d="M22.7996 420.402C23.0617 419.144 23.7229 417.567 25.0031 417.67C25.874 417.741 26.4324 418.592 26.9263 419.313C28.9403 422.247 32.1275 424.347 35.6172 425.043C35.72 423.327 35.8329 421.565 36.5546 420.005C37.2763 418.444 38.7561 417.11 40.4737 417.084C42.53 417.049 44.1186 418.763 45.6971 420.081C47.2756 421.4 49.7452 422.384 51.2592 420.991C51.995 420.311 52.243 419.273 52.5595 418.323C53.0413 416.872 53.763 415.501 54.6843 414.281C55.5653 413.118 56.8697 412.007 58.3091 412.241C60.2747 412.562 60.9661 414.971 61.3572 416.922C61.7483 418.874 62.8229 421.259 64.8106 421.136C64.8348 419.628 65.5948 418.15 66.8044 417.249C68.0301 419.473 70.1852 422.069 72.548 421.138C73.7938 420.646 74.4611 419.333 75.2091 418.223C75.957 417.112 77.1767 416.021 78.4729 416.356C80.2954 416.83 80.3297 419.34 81.0191 421.091C82.1057 423.851 85.5228 425.081 88.4561 424.629C91.3873 424.178 93.9416 422.454 96.3869 420.775C96.3244 423.259 98.2799 425.434 100.562 426.418C102.844 427.401 105.404 427.442 107.89 427.468C109.114 427.48 110.406 427.476 111.458 426.851C112.571 426.19 113.206 424.954 113.63 423.73C115.577 418.116 114.218 411.888 112.081 406.345C110.586 402.464 108.624 398.609 105.417 395.96C102.451 393.511 98.6791 392.301 94.9858 391.231C81.6441 387.362 67.6189 384.59 53.8981 386.759C45.9995 388.009 38.2743 391.092 31.9179 395.984C28.7669 398.41 26.513 400.897 24.6402 404.333C22.9125 407.502 17.6084 410.997 16.7254 414.219C15.8061 417.561 22.6605 421.075 22.7996 420.402Z" fill="#FF8B00"/>
<path d="M57.3551 500.462C55.1315 493.029 53.0047 485.618 51.3153 478C51.0996 477.05 50.9181 476.082 50.7306 475.119L50.4786 473.657C50.4121 473.143 50.394 472.562 50.3577 472.018C50.3234 469.847 50.6943 467.855 51.16 465.92C52.1096 462.055 53.4562 458.396 54.8876 454.786C56.327 451.181 57.8914 447.643 59.4578 444.125C60.238 442.367 61.0323 440.607 61.7298 438.861C62.1048 437.958 62.3306 437.226 62.4616 436.281C62.5947 435.347 62.7056 434.4 62.8124 433.448C63.5946 425.812 64.1429 418.117 64.6873 410.44L65.4816 410.48C65.2114 418.185 64.9413 425.878 64.4292 433.595C64.3566 434.561 64.278 435.529 64.1732 436.509C64.0885 437.48 63.7881 438.613 63.4454 439.498C62.7801 441.353 62.0504 443.133 61.3327 444.923C59.8933 448.496 58.4659 452.06 57.1777 455.658C55.8976 459.253 54.7122 462.892 53.9542 466.543C53.5772 468.359 53.3312 470.206 53.422 471.881C53.4724 472.296 53.4804 472.681 53.551 473.119L53.8393 474.494C54.053 475.413 54.2586 476.332 54.5025 477.254C56.4137 484.616 58.8006 491.95 61.2561 499.194L57.3551 500.462Z" fill="#465166"/>
<path d="M61.1372 442.604L44.975 427.767L40.933 424.057C40.2576 423.42 39.5924 422.86 38.8948 422.162C38.1449 421.426 37.9594 420.31 37.8506 419.447L36.2539 408.587L36.8143 408.5L38.5602 419.338C38.6973 420.257 38.8424 421.07 39.4472 421.648C40.052 422.237 40.7899 422.852 41.4551 423.461L45.5516 427.118L61.9375 441.75L61.1372 442.604Z" fill="#465166"/>
<path d="M63.5703 432.434C69.959 432.321 76.2972 431.235 82.4963 429.569C84.0285 429.162 85.5526 428.688 86.7481 427.769C87.9738 426.876 88.5665 425.424 89.0564 423.898C90.0139 420.78 91.7457 417.863 94.0761 415.568L94.4793 415.968C92.2638 418.254 90.6671 421.074 89.8002 424.138C89.3547 425.652 88.7157 427.382 87.3004 428.463C85.9437 429.549 84.3148 430.071 82.7625 430.525C76.5613 432.345 70.1283 433.603 63.6207 433.867L63.5703 432.434Z" fill="#465166"/>
<path d="M42.4333 424.682L41.8789 424.559C43.4151 417.481 43.9332 410.995 43.5582 403.534L44.1247 403.506C44.5017 411.019 43.9796 417.549 42.4333 424.682Z" fill="#465166"/>
<path d="M89.5312 422.555C87.5858 420.169 86.0697 417.354 85.1484 414.415L85.6907 414.246C86.5919 417.116 88.0736 419.866 89.9747 422.197L89.5312 422.555Z" fill="#465166"/>
<path d="M88.7107 426.326L88.4062 425.846C93.7486 422.451 100.363 419.512 107.032 417.573L107.191 418.117C100.571 420.042 94.0087 422.957 88.7107 426.326Z" fill="#465166"/>
<path d="M37.2217 414.417C34.4296 413.111 31.5851 410.77 29.7969 408.309L30.2565 407.974C31.9923 410.365 34.7522 412.637 37.4637 413.903L37.2217 414.417Z" fill="#465166"/>
<mask id="mask0_935_46" style="mask-type:luminance" maskUnits="userSpaceOnUse" x="13" y="343" width="107" height="82">
<path d="M116.008 392.339C113.109 381.776 109.083 370.748 103.435 361.342C101.894 358.775 100.739 355.566 98.9289 353.209C96.7879 350.423 92.8688 348.496 89.7824 346.986C78.1602 341.299 62.7219 344.188 50.8477 348.268C47.0194 349.582 43.2374 351.221 40.0925 353.768C36.5161 356.663 33.9316 360.59 31.6616 364.591C24.2489 377.653 19.602 392.065 15.0076 406.365C14.3968 408.266 13.7779 410.227 13.9573 412.215C14.1367 414.203 15.3201 416.241 17.2373 416.791C18.8481 417.255 20.5556 416.598 22.0575 415.85C25.529 414.12 28.7203 411.834 31.4741 409.104C32.2503 408.334 33.1192 407.473 34.2118 407.467C35.0626 407.463 35.8166 407.991 36.4657 408.542C39.407 411.034 42.2153 414.691 46.0557 414.338C50.9042 413.892 52.8214 407.489 57.2263 405.413C58.1093 404.996 59.1858 404.78 60.0406 405.248C60.5728 405.538 60.9438 406.054 61.2603 406.572C62.4255 408.483 63.1049 410.679 64.4254 412.487C65.7458 414.295 68.0501 415.699 70.177 414.999C74.094 413.713 74.215 406.778 78.3094 406.298C81.2407 405.955 83.049 409.33 84.0227 412.116C84.9985 414.9 86.8995 418.255 89.8166 417.803C92.0423 417.458 93.5704 414.88 95.8223 414.949C96.8524 414.979 97.7717 415.582 98.5882 416.215C101.644 418.585 104.152 421.698 107.549 423.549C110.946 425.399 115.821 425.506 118.103 422.384C119.163 420.932 119.462 419.071 119.605 417.279C120.278 408.864 118.242 400.484 116.008 392.339Z" fill="white"/>
</mask>
<g mask="url(#mask0_935_46)">
<path d="M116.04 392.34C113.141 381.777 109.115 370.749 103.466 361.343C101.926 358.776 100.77 355.567 98.9601 353.21C96.8192 350.424 92.9001 348.497 89.8136 346.987C78.1915 341.3 62.7531 344.189 50.879 348.269C47.0506 349.583 43.2686 351.222 40.1237 353.769C36.5474 356.663 33.9629 360.591 31.6929 364.592C24.2801 377.654 19.6333 392.066 15.0389 406.366C14.428 408.267 13.8091 410.228 13.9885 412.216C14.168 414.204 15.3513 416.242 17.2685 416.792C18.8793 417.256 20.5868 416.599 22.0887 415.851C25.5603 414.121 28.7516 411.835 31.5054 409.105C32.2815 408.335 33.1504 407.474 34.2431 407.468C35.0938 407.464 35.8478 407.992 36.497 408.543C39.4383 411.035 42.2465 414.692 46.087 414.339C50.9354 413.893 52.8526 407.49 57.2575 405.414C58.1405 404.997 59.2171 404.781 60.0719 405.249C60.6041 405.539 60.975 406.055 61.2915 406.573C62.4568 408.484 63.1361 410.68 64.4566 412.488C65.7771 414.296 68.0813 415.7 70.2082 415C74.1253 413.714 74.2462 406.779 78.3407 406.299C81.2719 405.956 83.0802 409.331 84.054 412.117C85.0297 414.901 86.9308 418.256 89.8479 417.804C92.0735 417.459 93.6017 414.881 95.8535 414.95C96.8837 414.98 97.803 415.583 98.6194 416.216C101.676 418.586 104.184 421.699 107.58 423.55C110.977 425.4 115.852 425.507 118.134 422.384C119.195 420.933 119.493 419.072 119.636 417.28C120.309 408.865 118.273 400.485 116.04 392.34Z" fill="#FFB500"/>
</g>
<mask id="mask1_935_46" style="mask-type:luminance" maskUnits="userSpaceOnUse" x="13" y="343" width="107" height="82">
<path d="M116.008 392.339C113.109 381.776 109.083 370.748 103.435 361.342C101.894 358.775 100.739 355.566 98.9289 353.209C96.7879 350.423 92.8688 348.496 89.7824 346.986C78.1602 341.299 62.7219 344.188 50.8477 348.268C47.0194 349.582 43.2374 351.221 40.0925 353.768C36.5161 356.663 33.9316 360.59 31.6616 364.591C24.2489 377.653 19.602 392.065 15.0076 406.365C14.3968 408.266 13.7779 410.227 13.9573 412.215C14.1367 414.203 15.3201 416.241 17.2373 416.791C18.8481 417.255 20.5556 416.598 22.0575 415.85C25.529 414.12 28.7203 411.834 31.4741 409.104C32.2503 408.334 33.1192 407.473 34.2118 407.467C35.0626 407.463 35.8166 407.991 36.4657 408.542C39.407 411.034 42.2153 414.691 46.0557 414.338C50.9042 413.892 52.8214 407.489 57.2263 405.413C58.1093 404.996 59.1858 404.78 60.0406 405.248C60.5728 405.538 60.9438 406.054 61.2603 406.572C62.4255 408.483 63.1049 410.679 64.4254 412.487C65.7458 414.295 68.0501 415.699 70.177 414.999C74.094 413.713 74.215 406.778 78.3094 406.298C81.2407 405.955 83.049 409.33 84.0227 412.116C84.9985 414.9 86.8995 418.255 89.8166 417.803C92.0423 417.458 93.5704 414.88 95.8223 414.949C96.8524 414.979 97.7717 415.582 98.5882 416.215C101.644 418.585 104.152 421.698 107.549 423.549C110.946 425.399 115.821 425.506 118.103 422.384C119.163 420.932 119.462 419.071 119.605 417.279C120.278 408.864 118.242 400.484 116.008 392.339Z" fill="white"/>
</mask>
<g mask="url(#mask1_935_46)">
<path d="M119.962 410.344C118.045 410.344 116.341 409.664 115.126 408.404C113.777 407.011 113.196 405.173 112.634 403.401C112.416 402.715 112.2 402.03 111.938 401.375C111.055 399.153 109.116 397.149 107.088 397.669C105.239 398.127 104.661 400.095 103.989 402.371C103.383 404.431 102.754 406.564 101.04 407.8C99.9332 408.598 98.6571 408.862 97.26 408.578C94.3792 407.997 91.839 405.3 90.5387 403.167L90.2464 402.687C88.301 399.484 86.0955 395.855 82.6845 395.855C82.6643 395.855 82.6421 395.855 82.622 395.855C80.1141 395.887 78.2312 397.875 76.2374 399.98C74.1488 402.183 71.9917 404.463 68.9577 404.463C68.9335 404.463 68.9113 404.463 68.8891 404.463C66.0587 404.429 64.0568 402.423 62.1215 400.484C60.6901 399.048 59.2084 397.565 57.4303 396.936C53.2814 395.468 48.8825 398.887 45.3505 401.637C43.3446 403.199 36.4358 407.987 31.7406 403.959C30.9342 403.268 30.3395 402.399 29.7629 401.556C29.0815 400.558 28.4364 399.615 27.501 399.038C24.5758 397.232 20.7616 399.885 18.1469 402.036C13.8327 405.58 9.76441 406.395 7.26056 404.217L6.98438 403.975L7.06501 403.616C8.19396 398.613 9.4721 392.944 12.4416 388.251C15.0543 384.118 19.9733 379.695 26.1342 379.87C29.1743 379.931 32.3333 381.495 34.3795 383.947C36.0568 385.959 36.8189 388.319 36.5427 390.634C37.3672 391.361 38.3692 391.728 39.5364 391.678C42.6471 391.579 46.0742 388.89 48.064 386.618C53.233 380.717 57.6843 378.778 61.2969 380.86C64.1899 382.523 64.9721 386.029 65.3249 389.648C68.4758 390.16 71.0664 386.745 73.411 382.959C74.8725 380.598 77.7635 377.909 80.6524 377.584C82.0575 377.425 83.3074 377.862 84.2771 378.842C85.1359 379.713 85.531 380.828 85.9141 381.91C86.1983 382.711 86.4644 383.467 86.9039 384.102C89.188 387.402 94.5163 385.842 97.5362 383.993C97.9737 383.725 98.4172 383.445 98.8627 383.164C102.096 381.12 105.765 378.806 109.608 379.844C112.148 380.534 113.934 382.487 115.662 384.378C116.164 384.926 116.664 385.475 117.182 385.989C119.252 388.045 122.305 389.384 124.429 388.243C118.777 378.989 111.164 370.762 102.383 364.42C101.909 364.077 101.449 363.769 100.996 363.754C100.639 363.71 100.338 363.886 100.105 364.198C99.5824 364.9 99.4574 366.295 99.8203 367.379L100.044 368.024C100.629 369.688 101.356 371.758 100.125 373.322L99.9735 373.514L99.7316 373.55C95.5545 374.191 93.0829 370.579 90.6919 367.099C88.6901 364.186 86.6217 361.172 83.5775 360.523C81.6825 360.114 79.6061 361.108 78.2856 363.049C76.9651 364.988 76.8018 367.285 77.8703 368.897L78.0921 369.232L77.8743 369.571C77.2675 370.52 76.3382 370.952 75.2697 370.798C73.0864 370.482 70.8607 367.837 70.2257 365.662C69.6028 363.525 68.2258 360.948 66.6695 360.327C66.1292 360.118 65.6071 360.162 65.0708 360.475C64.4802 360.821 64.083 361.485 63.7262 362.136C61.6296 365.956 60.2486 370.081 59.6216 374.399L59.4886 375.324L58.6903 374.836C53.2249 371.486 49.951 365.047 50.4187 358.668C46.419 358.16 43.0382 361.912 39.9094 365.821C36.6334 369.915 31.2568 373.736 26.872 371.018C23.6626 369.03 23.2211 364.621 24.4367 361.485C25.6947 358.235 28.3518 355.809 30.6963 353.667L31.5269 354.576C29.2811 356.626 26.737 358.948 25.5838 361.928C24.5335 364.642 24.9689 368.389 27.5192 369.968C31.2145 372.262 35.9863 368.752 38.9457 365.051C41.5403 361.811 45.8847 356.392 51.213 357.553L51.7533 357.674L51.6928 358.223C51.0618 364.011 53.7955 369.94 58.5491 373.27C59.2547 369.151 60.6296 365.21 62.6436 361.543C63.0629 360.775 63.583 359.914 64.4459 359.408C65.3047 358.902 66.23 358.825 67.1211 359.18C69.2056 360.009 70.7317 363.003 71.4051 365.311C71.9796 367.284 73.9412 369.357 75.441 369.575C75.9229 369.639 76.2978 369.522 76.6103 369.192C75.5197 367.194 75.7576 364.559 77.2635 362.347C78.8662 359.993 81.4446 358.799 83.8295 359.311C87.3535 360.063 89.563 363.283 91.702 366.395C93.9195 369.627 96.0282 372.685 99.2861 372.359C99.8989 371.329 99.3788 369.857 98.8768 368.43L98.647 367.764C98.2236 366.5 98.2478 364.613 99.1127 363.456C99.5925 362.815 100.24 362.521 101.032 362.517C101.83 362.545 102.489 362.976 103.098 363.416C112.172 369.972 120.018 378.509 125.784 388.11L126.066 388.579L125.633 388.914C122.829 391.077 118.831 389.361 116.307 386.856C115.777 386.327 115.261 385.767 114.747 385.203C113.063 383.362 111.473 381.622 109.279 381.027C105.963 380.124 102.685 382.199 99.5139 384.201C99.0623 384.487 98.6147 384.767 98.1732 385.039C93.9417 387.626 88.3635 388.374 85.8838 384.797C85.3516 384.029 85.0432 383.156 84.7448 382.318C84.392 381.32 84.0594 380.378 83.3941 379.705C82.6885 378.991 81.8075 378.687 80.7834 378.806C78.4126 379.072 75.8039 381.423 74.4512 383.606C72.6368 386.535 69.2661 391.998 64.587 390.748L64.1697 390.638L64.1314 390.208C63.827 386.763 63.198 383.374 60.674 381.925C57.646 380.187 53.7088 382.031 48.9833 387.428C46.8302 389.888 43.0725 392.797 39.5687 392.908C37.9115 392.94 36.5568 392.416 35.444 391.297L35.2222 391.073L35.2726 390.765C35.6073 388.704 34.9501 386.563 33.426 384.735C31.6035 382.547 28.7973 381.156 26.1019 381.102C20.5398 380.939 15.9091 385.061 13.4758 388.908C10.6897 393.313 9.48016 398.484 8.34516 403.51C11.3409 405.665 15.9777 402.217 17.3606 401.082C20.2677 398.691 24.5516 395.762 28.1441 397.99C29.2993 398.704 30.0492 399.8 30.775 400.861C31.3294 401.671 31.8535 402.439 32.5369 403.026C35.704 405.733 40.8387 403.584 44.5885 400.663C48.3563 397.73 53.0374 394.087 57.8335 395.772C59.8757 396.494 61.4562 398.079 62.9863 399.611C64.8289 401.457 66.5687 403.201 68.8972 403.227C68.9153 403.227 68.9335 403.227 68.9516 403.227C71.4575 403.227 73.3424 401.238 75.3382 399.131C77.4207 396.931 79.5738 394.659 82.6018 394.621C82.628 394.621 82.6542 394.621 82.6804 394.621C86.785 394.621 89.2828 398.736 91.2927 402.046L91.585 402.524C92.849 404.596 95.1674 406.898 97.4979 407.368C98.5462 407.578 99.4937 407.388 100.312 406.798C101.685 405.81 102.252 403.883 102.8 402.022C103.514 399.603 104.249 397.103 106.784 396.47C109.487 395.807 111.995 398.196 113.075 400.915C113.348 401.601 113.575 402.312 113.799 403.026C114.343 404.741 114.858 406.36 116.005 407.548C117.357 408.947 119.101 409.179 120.327 409.1C122.686 408.977 125.153 407.689 126.609 405.822C129.3 402.369 129.746 397.514 130.102 393.611L131.328 393.726C130.955 397.788 130.491 402.84 127.578 406.578C125.887 408.747 123.133 410.185 120.391 410.33C120.252 410.34 120.105 410.344 119.962 410.344Z" fill="#FF8B00"/>
</g>
<path d="M355.077 243.377H350.488V496.786H355.077V243.377Z" fill="#01749F"/>
<path d="M363.719 243.079C363.719 243.079 364.924 254.126 376.968 254.126C389.011 254.126 387.003 243.079 387.003 243.079H363.719Z" fill="#FFB500"/>
<path d="M387.157 242.07H350.488V244.086H387.157V242.07Z" fill="#465166"/>
<path d="M684.213 243.376H679.625V496.785H684.213V243.376Z" fill="#01749F"/>
<path d="M692.852 243.081C692.852 243.081 694.057 254.129 706.101 254.129C718.144 254.129 716.138 243.081 716.138 243.081H692.852Z" fill="#FFB500"/>
<path d="M716.292 242.073H679.625V244.089H716.292V242.073Z" fill="#465166"/>
<path d="M44.6938 243.379H40.1055V496.788H44.6938V243.379Z" fill="#01749F"/>
<path d="M53.332 243.081C53.332 243.081 54.5356 254.129 66.5811 254.129C78.6245 254.129 76.6186 243.081 76.6186 243.081H53.332Z" fill="#FFB500"/>
<path d="M76.7721 242.073H40.1055V244.089H76.7721V242.073Z" fill="#465166"/>
<path d="M321.332 496.784C321.332 490.766 325.888 174.763 325.888 174.763H146.504V496.784H321.332Z" fill="#01749F"/>
<path d="M208.954 410.344H162.141V496.783H208.954V410.344Z" fill="#F1F9FC"/>
<path d="M205.428 413.55H165.715V496.78H205.428V413.55Z" fill="#0286B7"/>
<path d="M200.848 460.134C201.968 460.134 202.876 459.226 202.876 458.106C202.876 456.986 201.968 456.078 200.848 456.078C199.728 456.078 198.82 456.986 198.82 458.106C198.82 459.226 199.728 460.134 200.848 460.134Z" fill="#465166"/>
<path d="M311.471 463.355H220.004V467.405H311.471V463.355Z" fill="#465166"/>
<path d="M229.132 466.053H226.094V497.78H229.132V466.053Z" fill="#465166"/>
<path d="M241.323 466.053H238.285V497.78H241.323V466.053Z" fill="#465166"/>
<path d="M253.417 466.053H250.379V497.78H253.417V466.053Z" fill="#465166"/>
<path d="M265.608 466.053H262.57V497.78H265.608V466.053Z" fill="#465166"/>
<path d="M277.702 466.053H274.664V497.78H277.702V466.053Z" fill="#465166"/>
<path d="M289.894 466.053H286.855V497.78H289.894V466.053Z" fill="#465166"/>
<path d="M302.038 466.053H299V497.78H302.038V466.053Z" fill="#465166"/>
<path d="M256.477 173.124V142.685L313.972 144.941V173.124H256.477Z" fill="#0286B7"/>
<path d="M328.39 170.111H140.219V180.983H328.39V170.111Z" fill="#465166"/>
<path d="M315.188 146.937L255.402 145.526V141.041L315.188 143.99V146.937Z" fill="#465166"/>
<path d="M237.551 151.646H230.02V171.538H237.551V151.646Z" fill="#465166"/>
<path d="M221.457 151.646H213.926V171.538H221.457V151.646Z" fill="#465166"/>
<path d="M205.392 155.411H200.602V171.536H205.392V155.411Z" fill="#465166"/>
<path d="M155.841 155.411H152.848V171.536H155.841V155.411Z" fill="#465166"/>
<path d="M206.1 154.4H199.645V156.589H206.1V154.4Z" fill="#465166"/>
<path d="M251.376 411.375H222.395V444.127H251.376V411.375Z" fill="#0286B7"/>
<path d="M249.416 413.623H224.414V441.875H249.416V413.623Z" fill="#F1F9FC"/>
<path d="M253.744 442.819H219.676V446.925H253.744V442.819Z" fill="#465166"/>
<path d="M250.241 424.574H223.168V426.856H250.241V424.574Z" fill="#0286B7"/>
<path d="M301.236 411.375H272.254V444.126H301.236V411.375Z" fill="#0286B7"/>
<path d="M299.276 413.623H274.273V441.875H299.276V413.623Z" fill="#F1F9FC"/>
<path d="M303.603 442.817H269.535V446.924H303.603V442.817Z" fill="#465166"/>
<path d="M300.1 424.571H273.027V426.853H300.1V424.571Z" fill="#0286B7"/>
<path d="M251.376 337.653H222.395V370.405H251.376V337.653Z" fill="#0286B7"/>
<path d="M249.416 339.901H224.414V368.155H249.416V339.901Z" fill="#F1F9FC"/>
<path d="M253.744 369.097H219.676V373.204H253.744V369.097Z" fill="#465166"/>
<path d="M250.241 350.852H223.168V353.134H250.241V350.852Z" fill="#0286B7"/>
<path d="M201.505 337.654H172.523V370.406H201.505V337.654Z" fill="#0286B7"/>
<path d="M199.545 339.902H174.543V368.156H199.545V339.902Z" fill="#F1F9FC"/>
<path d="M203.873 369.098H169.805V373.205H203.873V369.098Z" fill="#465166"/>
<path d="M200.369 350.851H173.297V353.133H200.369V350.851Z" fill="#0286B7"/>
<path d="M301.236 337.655H272.254V370.407H301.236V337.655Z" fill="#0286B7"/>
<path d="M299.276 339.903H274.273V368.157H299.276V339.903Z" fill="#F1F9FC"/>
<path d="M303.603 369.098H269.535V373.205H303.603V369.098Z" fill="#465166"/>
<path d="M300.1 350.851H273.027V353.133H300.1V350.851Z" fill="#0286B7"/>
<path d="M251.376 270.547H222.395V303.299H251.376V270.547Z" fill="#0286B7"/>
<path d="M249.416 272.793H224.414V301.047H249.416V272.793Z" fill="#F1F9FC"/>
<path d="M253.744 301.991H219.676V306.097H253.744V301.991Z" fill="#465166"/>
<path d="M250.241 283.746H223.168V286.028H250.241V283.746Z" fill="#0286B7"/>
<path d="M201.505 270.547H172.523V303.299H201.505V270.547Z" fill="#0286B7"/>
<path d="M199.545 272.793H174.543V301.047H199.545V272.793Z" fill="#F1F9FC"/>
<path d="M203.873 301.991H169.805V306.097H203.873V301.991Z" fill="#465166"/>
<path d="M200.369 283.746H173.297V286.028H200.369V283.746Z" fill="#0286B7"/>
<path d="M301.236 270.547H272.254V303.299H301.236V270.547Z" fill="#0286B7"/>
<path d="M299.276 272.793H274.273V301.047H299.276V272.793Z" fill="#F1F9FC"/>
<path d="M303.603 301.991H269.535V306.097H303.603V301.991Z" fill="#465166"/>
<path d="M300.1 283.744H273.027V286.026H300.1V283.744Z" fill="#0286B7"/>
<path d="M251.376 203.439H222.395V236.191H251.376V203.439Z" fill="#0286B7"/>
<path d="M249.416 205.686H224.414V233.938H249.416V205.686Z" fill="#F1F9FC"/>
<path d="M253.744 234.883H219.676V238.99H253.744V234.883Z" fill="#465166"/>
<path d="M250.241 216.638H223.168V218.92H250.241V216.638Z" fill="#0286B7"/>
<path d="M201.505 203.439H172.523V236.191H201.505V203.439Z" fill="#0286B7"/>
<path d="M199.545 205.686H174.543V233.938H199.545V205.686Z" fill="#F1F9FC"/>
<path d="M203.873 234.883H169.805V238.99H203.873V234.883Z" fill="#465166"/>
<path d="M200.369 216.638H173.297V218.92H200.369V216.638Z" fill="#0286B7"/>
<path d="M301.236 203.439H272.254V236.191H301.236V203.439Z" fill="#0286B7"/>
<path d="M299.276 205.686H274.273V233.938H299.276V205.686Z" fill="#F1F9FC"/>
<path d="M303.603 234.883H269.535V238.99H303.603V234.883Z" fill="#465166"/>
<path d="M300.1 216.637H273.027V218.919H300.1V216.637Z" fill="#0286B7"/>
<path d="M186.812 386.837H169.594V393.182H186.812V386.837Z" fill="#0286B7"/>
<path d="M286.508 321.586H269.289V327.93H286.508V321.586Z" fill="#0286B7"/>
<path d="M186.812 253.165H169.594V259.509H186.812V253.165Z" fill="#0286B7"/>
<path d="M196.047 260.41H188.156V266.754H196.047V260.41Z" fill="#0286B7"/>
<path d="M445.843 209.704H429.711V262.94H445.843V209.704Z" fill="#0286B7"/>
<path d="M656.955 378.727V496.783H571.901L564.375 362.968H656.955V378.727Z" fill="#01749F"/>
<path d="M424.592 497.127L413.492 278.641L496.236 208.007L586.042 273.595L571.916 496.782L424.592 497.127Z" fill="#0286B7"/>
<path d="M395.256 297.097L391.359 292.474L496.102 204.162L603.973 283.265L600.397 288.144L496.362 211.851L395.256 297.097Z" fill="#465166"/>
<path d="M582.32 332.512L650.083 337.363L674.704 378.729H579.395L582.32 332.512Z" fill="#465166"/>
<path d="M490.915 336.504H452.977V379.376H490.915V336.504Z" fill="#01749F"/>
<path d="M488.269 339.444H455.539V376.429H488.269V339.444Z" fill="#F1F9FC"/>
<path d="M493.992 377.666H449.395V383.043H493.992V377.666Z" fill="#465166"/>
<path d="M489.408 353.773H453.969V356.759H489.408V353.773Z" fill="#01749F"/>
<path d="M473.315 337.792H470.734V376.832H473.315V337.792Z" fill="#01749F"/>
<path d="M550.279 336.504H512.34V379.376H550.279V336.504Z" fill="#01749F"/>
<path d="M547.63 339.444H514.902V376.429H547.63V339.444Z" fill="#F1F9FC"/>
<path d="M553.355 377.666H508.758V383.043H553.355V377.666Z" fill="#465166"/>
<path d="M548.767 353.773H513.328V356.759H548.767V353.773Z" fill="#01749F"/>
<path d="M532.678 337.792H530.098V376.832H532.678V337.792Z" fill="#01749F"/>
<path d="M522.829 261.65H484.891V304.522H522.829V261.65Z" fill="#01749F"/>
<path d="M520.181 264.59H487.453V301.575H520.181V264.59Z" fill="#F1F9FC"/>
<path d="M525.906 302.812H481.309V308.187H525.906V302.812Z" fill="#465166"/>
<path d="M521.322 278.919H485.883V281.905H521.322V278.919Z" fill="#01749F"/>
<path d="M505.229 262.939H502.648V301.978H505.229V262.939Z" fill="#01749F"/>
<path d="M492.657 410.345H445.844V496.784H492.657V410.345Z" fill="#F1F9FC"/>
<path d="M489.131 413.557H449.418V496.787H489.131V413.557Z" fill="#465166"/>
<path d="M647.34 410.345H582.383V496.784H647.34V410.345Z" fill="#F1F9FC"/>
<path d="M643.814 413.551H585.957V496.781H643.814V413.551Z" fill="#465166"/>
<path d="M484.548 460.133C485.668 460.133 486.576 459.225 486.576 458.105C486.576 456.985 485.668 456.077 484.548 456.077C483.427 456.077 482.52 456.985 482.52 458.105C482.52 459.225 483.427 460.133 484.548 460.133Z" fill="#F1F9FC"/>
<path d="M448.111 207.121H427.461V216.477H448.111V207.121Z" fill="#465166"/>
<path d="M604.734 392.2H589.77V397.187H604.734V392.2Z" fill="#0286B7"/>
<path d="M507.988 394.121H493.023V399.108H507.988V394.121Z" fill="#01749F"/>
<path d="M489.609 399.104H474.645V404.091H489.609V399.104Z" fill="#01749F"/>
<path d="M441.07 319.49H426.105V324.478H441.07V319.49Z" fill="#01749F"/>
<path d="M460.609 307.598H445.645V312.585H460.609V307.598Z" fill="#01749F"/>
<path d="M620.801 385.679H605.836V390.667H620.801V385.679Z" fill="#0286B7"/>
<path d="M390.262 466.548H376.098V497.185H390.262V466.548Z" fill="#0286B7"/>
<path d="M391.815 465.708H374.332V467.745H391.815V465.708Z" fill="#465166"/>
<path d="M384.033 460.676H382.595C379.42 460.676 376.848 463.249 376.848 466.424H389.78C389.78 463.249 387.206 460.676 384.033 460.676Z" fill="#465166"/>
<path d="M385.3 460.058H381.613V460.879H385.3V460.058Z" fill="#465166"/>
<path d="M393.366 473.489H372.488V482.013H393.366V473.489Z" fill="#0286B7"/>
<path d="M373.105 472.87H371.129V482.507H373.105V472.87Z" fill="#465166"/>
<path d="M394.253 472.87H392.277V482.507H394.253V472.87Z" fill="#465166"/>
<path d="M715.753 497.127H0V506H715.753V497.127Z" fill="#465166"/>
</svg>
