<svg width="50" height="50" viewBox="0 0 50 50" fill="none" xmlns="http://www.w3.org/2000/svg">
<path d="M10.4545 45C7.44208 45 5 42.5579 5 39.5455V6.81818C5 5.81405 5.81405 5 6.81818 5C7.82231 5 8.63636 5.81405 8.63636 6.81818V39.5455C8.63636 40.5496 9.45041 41.3636 10.4545 41.3636H43.1818C44.186 41.3636 45 42.1777 45 43.1818C45 44.186 44.186 45 43.1818 45H10.4545Z" fill="#465166"/>
<path d="M43.1804 44.5455H10.4531C7.69252 44.5435 5.45512 42.3061 5.45312 39.5455V6.81823C5.45312 6.06513 6.06366 5.45459 6.81676 5.45459C7.56986 5.45459 8.1804 6.06513 8.1804 6.81823V39.5455C8.18239 40.7998 9.19879 41.8162 10.4531 41.8182H43.1804C43.9335 41.8182 44.544 42.4288 44.544 43.1819C44.544 43.935 43.9335 44.5455 43.1804 44.5455Z" fill="#465166"/>
<path d="M37.7283 37.7273C36.7242 37.7273 35.9102 36.9132 35.9102 35.9091V19.5455C35.9102 18.5413 36.7242 17.7273 37.7283 17.7273C38.7325 17.7273 39.5465 18.5413 39.5465 19.5455V35.9091C39.5465 36.9132 38.7325 37.7273 37.7283 37.7273Z" fill="#465166"/>
<path d="M37.7276 37.2728C36.9745 37.2728 36.364 36.6623 36.364 35.9092V19.5455C36.364 18.7924 36.9745 18.1819 37.7276 18.1819C38.4807 18.1819 39.0913 18.7924 39.0913 19.5455V35.9092C39.0913 36.6623 38.4807 37.2728 37.7276 37.2728ZM30.4549 37.7273C29.4508 37.7273 28.6367 36.9133 28.6367 35.9092V25.0001C28.6367 23.9959 29.4508 23.1819 30.4549 23.1819C31.459 23.1819 32.2731 23.9959 32.2731 25.0001V35.9092C32.2731 36.9133 31.459 37.7273 30.4549 37.7273Z" fill="#465166"/>
<path d="M30.4542 37.2728C29.7011 37.2728 29.0906 36.6623 29.0906 35.9092V25.0001C29.0906 24.247 29.7011 23.6364 30.4542 23.6364C31.2073 23.6364 31.8178 24.247 31.8178 25.0001V35.9092C31.8178 36.6623 31.2073 37.2728 30.4542 37.2728ZM23.1815 37.7273C22.1773 37.7273 21.3633 36.9133 21.3633 35.9092V25.0001C21.3633 23.9959 22.1773 23.1819 23.1815 23.1819C24.1856 23.1819 24.9996 23.9959 24.9996 25.0001V35.9092C24.9996 36.9133 24.1856 37.7273 23.1815 37.7273Z" fill="#465166"/>
<path d="M23.1808 37.2726C22.4277 37.2726 21.8171 36.6621 21.8171 35.909V24.9999C21.8171 24.2468 22.4277 23.6362 23.1808 23.6362C23.9339 23.6362 24.5444 24.2468 24.5444 24.9999V35.909C24.5444 36.6621 23.9339 37.2726 23.1808 37.2726ZM15.908 37.7271C14.9039 37.7271 14.0898 36.9131 14.0898 35.909V28.6362C14.0898 27.6321 14.9039 26.818 15.908 26.818C16.9122 26.818 17.7262 27.6321 17.7262 28.6362V35.909C17.7262 36.9131 16.9122 37.7271 15.908 37.7271Z" fill="#465166"/>
<path d="M15.9108 37.2728C15.1577 37.2728 14.5472 36.6623 14.5472 35.9092V28.6365C14.5472 27.8834 15.1577 27.2728 15.9108 27.2728C16.6639 27.2728 17.2745 27.8834 17.2745 28.6365V35.9092C17.2745 36.6623 16.6639 37.2728 15.9108 37.2728ZM14.0927 23.1819C13.0885 23.1825 12.2741 22.3689 12.2734 21.3648C12.2733 21.0982 12.3318 20.8348 12.4447 20.5933C12.5577 20.3518 12.7224 20.1381 12.9272 19.9674L23.8362 10.8765C24.1644 10.6056 24.5762 10.4566 25.0017 10.4546C25.2406 10.4537 25.4773 10.5003 25.698 10.5918C25.9187 10.6832 26.1189 10.8177 26.2871 10.9874L30.4563 15.1564L38.2617 7.35099C38.9593 6.62867 40.1104 6.6087 40.8327 7.30629C41.555 8.00388 41.575 9.15491 40.8774 9.87723C40.8627 9.89238 40.8478 9.90732 40.8327 9.92192L31.7418 19.0128C31.0318 19.7226 29.8809 19.7226 29.1708 19.0128L24.889 14.7328L15.2526 22.7601C14.9265 23.0309 14.5165 23.18 14.0927 23.1819Z" fill="#465166"/>
<path d="M14.0896 22.7274C13.3365 22.7271 12.7262 22.1163 12.7266 21.3632C12.7266 21.1634 12.7706 20.9662 12.8553 20.7853C12.94 20.6044 13.0635 20.4444 13.2169 20.3165L24.1259 11.2256C24.6677 10.7747 25.4638 10.8109 25.9623 11.3092L30.4532 15.7983L38.5805 7.67287C39.1315 7.15944 39.9943 7.18995 40.5078 7.74091C40.9957 8.2646 40.9957 9.07645 40.5078 9.60014L31.4169 18.691C30.8854 19.2233 30.0231 19.2238 29.491 18.6924L29.4896 18.691L24.9151 14.1183L14.9623 22.411C14.7177 22.616 14.4087 22.728 14.0896 22.7274Z" fill="#465166"/>
</svg>
