<svg width="50" height="50" viewBox="0 0 50 50" fill="none" xmlns="http://www.w3.org/2000/svg">
<path d="M19.7894 19.5689C23.8061 19.5689 27.0739 16.3012 27.0739 12.2844C27.0739 8.26772 23.8061 5 19.7894 5C15.7727 5 12.5049 8.26772 12.5049 12.2844C12.5049 16.3012 15.7727 19.5689 19.7894 19.5689ZM19.7894 7.55928C22.3949 7.55928 24.5146 9.67901 24.5146 12.2844C24.5146 14.8899 22.3949 17.0096 19.7894 17.0096C17.1839 17.0096 15.0642 14.8899 15.0642 12.2844C15.0642 9.67901 17.1839 7.55928 19.7894 7.55928ZM45.6713 24.8883C45.5598 24.7477 45.4199 24.6321 45.2608 24.5491C45.1017 24.4661 44.9269 24.4175 44.7478 24.4064L39.3989 24.0756C38.6968 24.0335 38.0864 24.5684 38.0427 25.2738C37.9992 25.9792 38.5356 26.5864 39.241 26.63L41.0177 26.7399L37.8324 28.9853C36.7028 24.4374 32.586 21.0566 27.6936 21.0566C26.6202 21.0559 25.5532 21.2212 24.5303 21.5467C22.9565 21.3655 21.3736 21.2747 19.7894 21.2749C17.6178 21.2749 15.4602 21.4432 13.3764 21.775C8.52277 22.5479 5 26.6761 5 31.591V36.3118C5 37.0186 5.57288 37.5914 6.27964 37.5914H19.2106C21.1086 40.2285 24.2038 41.9489 27.6936 41.9489C30.1135 41.9489 32.3436 41.1216 34.1166 39.7353L39.0063 44.6251C39.2562 44.8751 39.5836 45 39.9111 45C40.2386 45 40.566 44.875 40.8159 44.6251C41.3157 44.1254 41.3157 43.3152 40.8159 42.8155L35.9261 37.9257C37.2351 36.2516 38.0448 34.1698 38.1311 31.9057L42.8849 28.5547L42.5127 30.7539C42.3947 31.4507 42.864 32.1112 43.5608 32.2291C43.633 32.2413 43.7049 32.2473 43.7759 32.2473C44.3887 32.2472 44.9303 31.8055 45.036 31.181L45.9304 25.897C45.9604 25.7201 45.9529 25.5389 45.9082 25.3651C45.8636 25.1913 45.7829 25.0288 45.6713 24.8883ZM35.5295 30.6087L31.6337 33.3549L25.8968 29.2826C25.6706 29.122 25.3983 29.0393 25.121 29.0469C24.8437 29.0545 24.5764 29.152 24.3593 29.3247L19.9231 32.8542C19.8457 32.4079 19.8068 31.9557 19.8068 31.5027C19.8068 27.1539 23.3448 23.6159 27.6936 23.6159C31.7402 23.6159 35.0841 26.6793 35.5295 30.6087ZM7.55928 31.591C7.55928 27.9416 10.175 24.8763 13.779 24.3024C15.73 23.9916 17.7523 23.8342 19.7894 23.8342C20.0592 23.8342 20.3289 23.838 20.5984 23.8435C18.5389 25.7527 17.2475 28.4796 17.2475 31.5028C17.2475 32.5837 17.4125 33.6268 17.7188 34.6081L17.1857 35.0322H7.55928V31.591ZM27.6936 39.3897C24.7602 39.3897 22.1961 37.7798 20.8374 35.3973L25.1998 31.9265L30.8903 35.9659C31.1061 36.1191 31.3642 36.2017 31.6289 36.2021C31.8936 36.2025 32.1519 36.1208 32.3683 35.9683L35.1793 33.9867C34.1363 37.1222 31.175 39.3897 27.6936 39.3897Z" fill="#465166"/>
</svg>
