<svg width="50" height="50" viewBox="0 0 50 50" fill="none" xmlns="http://www.w3.org/2000/svg">
<path d="M41.9325 12.9195C41.7824 12.8325 41.6121 12.7865 41.4386 12.7861C41.2651 12.7856 41.0945 12.8307 40.9439 12.9169L34.5669 16.5685C34.7422 15.4727 34.7345 14.3483 34.5392 13.2341C34.1836 11.2062 33.2281 9.36681 31.776 7.91469C29.8964 6.03517 27.3881 5 24.713 5C22.0379 5 19.5296 6.03509 17.65 7.91469C16.1979 9.36681 15.2424 11.2062 14.8869 13.2341C14.7757 13.8686 14.7252 14.5122 14.7361 15.1563L7.49806 19.3009C7.34673 19.3876 7.22098 19.5127 7.13352 19.6636C7.04606 19.8144 7 19.9857 7 20.1601V44.0098C6.99999 44.1833 7.04557 44.3538 7.13219 44.5042C7.21881 44.6545 7.34341 44.7794 7.49352 44.8665C7.64363 44.9535 7.81397 44.9995 7.98748 45C8.16099 45.0005 8.33157 44.9553 8.48214 44.8691L19.1387 38.7668L29.7953 44.8691C29.9451 44.9548 30.1147 45 30.2873 45C30.4599 45 30.6296 44.9548 30.7794 44.8691L41.9279 38.4851C42.0793 38.3984 42.205 38.2733 42.2925 38.1224C42.3799 37.9715 42.426 37.8002 42.426 37.6259V13.7761C42.426 13.6027 42.3804 13.4322 42.2938 13.2819C42.2072 13.1315 42.0826 13.0065 41.9325 12.9195ZM19.0503 9.31492C20.5559 7.80934 22.5669 6.98019 24.7131 6.98019C26.8592 6.98019 28.8703 7.80934 30.3759 9.31492C32.6999 11.639 33.3608 15.2287 32.0203 18.2477C31.1546 20.1975 28.5665 23.8378 26.487 26.763C25.8538 27.6537 25.2427 28.5134 24.7131 29.2777C24.1834 28.5131 23.5723 27.6533 22.9387 26.7623C20.8594 23.8374 18.2715 20.1974 17.4058 18.2477C16.0654 15.2288 16.7262 11.639 19.0503 9.31492ZM29.2973 42.302L20.1288 37.0519V26.223C20.5265 26.786 20.9251 27.3482 21.3249 27.9097C22.3148 29.3021 23.2499 30.6174 23.8851 31.5861C23.9752 31.7234 24.0981 31.8362 24.2426 31.9143C24.3871 31.9923 24.5488 32.0332 24.7131 32.0332C24.8773 32.0332 25.039 31.9923 25.1835 31.9143C25.3281 31.8363 25.4509 31.7235 25.541 31.5862C26.1763 30.6175 27.1111 29.3025 28.1009 27.9103C28.5007 27.3486 28.8995 26.7862 29.2972 26.223V42.302H29.2973ZM8.98027 20.7342L15.0013 17.2865C15.1443 17.8919 15.3435 18.4828 15.596 19.0513C16.0955 20.1762 17.0394 21.7031 18.1487 23.3578V37.0519L8.98035 42.302L8.98027 20.7342ZM40.4459 37.052L31.2775 42.302V23.3577C32.291 21.8461 33.1652 20.442 33.6898 19.3528L40.4459 15.484V37.0519V37.052ZM24.7131 19.8618C25.9644 19.8618 27.2157 19.3856 28.1683 18.433C29.0911 17.5102 29.5994 16.283 29.5994 14.9778C29.5994 13.6726 29.0911 12.4455 28.1683 11.5227C27.2454 10.5998 26.0183 10.0915 24.7131 10.0915C23.4079 10.0915 22.1808 10.5998 21.2579 11.5227C20.3351 12.4455 19.8268 13.6727 19.8268 14.9778C19.8268 16.2829 20.335 17.5102 21.2579 18.433C22.2105 19.3856 23.4618 19.8618 24.7131 19.8618ZM22.6581 12.9229C23.2071 12.3739 23.9369 12.0717 24.7131 12.0717C25.4892 12.0717 26.2192 12.3739 26.768 12.9229C27.317 13.4718 27.6192 14.2016 27.6192 14.9778C27.6192 15.754 27.317 16.4839 26.768 17.0328C25.6351 18.1658 23.7913 18.1659 22.658 17.0328C22.1091 16.4839 21.8069 15.754 21.8069 14.9778C21.8069 14.2016 22.1091 13.4717 22.658 12.9229H22.6581Z" fill="#465166"/>
</svg>
