<svg width="50" height="50" viewBox="0 0 50 50" fill="none" xmlns="http://www.w3.org/2000/svg">
<path d="M35.8225 12.9841C35.657 12.7102 35.4065 12.498 35.1091 12.3799C34.8116 12.2619 34.4838 12.2445 34.1755 12.3304C33.8673 12.4163 33.5957 12.6008 33.4022 12.8557C33.2087 13.1105 33.104 13.4217 33.1041 13.7417C33.1041 15.5296 31.6496 16.9839 29.862 16.9839C28.0741 16.9839 26.6199 15.5296 26.6199 13.7417V1.46482C26.6199 1.17507 26.5339 0.891831 26.3729 0.650916C26.2119 0.410001 25.9831 0.22222 25.7154 0.111307C25.4477 0.000552833 25.1532 -0.0283622 24.869 0.0282154C24.5849 0.0847929 24.3239 0.224324 24.119 0.429178C23.955 0.593533 20.0483 4.52234 16.091 10.4588C13.7575 13.9591 11.8952 17.4312 10.5563 20.7786C8.86025 25.019 8 29.0791 8 32.8449C8 42.3042 15.6958 50 25.1547 50C34.614 50 42.3098 42.3042 42.3098 32.8449C42.3098 26.7902 40.127 20.108 35.8225 12.9841ZM25.1547 47.0703C17.3113 47.0703 10.9297 40.6886 10.9297 32.8449C10.9297 25.124 15.0446 17.3195 18.4969 12.1315C20.368 9.3197 22.2536 6.94998 23.6898 5.26463V13.7417C23.6898 17.1448 26.4586 19.9136 29.8617 19.9136C31.9422 19.9136 33.7858 18.8789 34.9043 17.297C37.876 22.8927 39.3801 28.112 39.3801 32.8449C39.3801 40.6886 32.9988 47.0703 25.1547 47.0703Z" fill="#465166"/>
<path d="M33.4635 24.7234H27.1875C26.3785 24.7234 25.7227 25.3792 25.7227 26.1878C25.7223 26.9969 26.3785 27.6531 27.1872 27.6531H29.9273L23.6688 33.9111L20.2668 30.5091C19.6951 29.9374 18.7673 29.9374 18.1956 30.5091L14.8667 33.8375C14.2945 34.4097 14.2945 35.3371 14.8664 35.9092C15.4386 36.4815 16.366 36.481 16.9381 35.9092L19.2311 33.6166L22.6328 37.0185C22.9075 37.2932 23.2801 37.4475 23.6687 37.4475C24.0572 37.4475 24.4298 37.2932 24.7045 37.0185L31.9985 29.7249V32.4641C31.9985 33.2729 32.6543 33.929 33.4633 33.929C34.2725 33.929 34.9282 33.2729 34.9282 32.4641V26.1882C34.9282 25.3792 34.2725 24.7234 33.4633 24.7234H33.4635Z" fill="#465166"/>
</svg>
